<svg width="32" height="32" viewBox="0 0 32 32" fill="none" xmlns="http://www.w3.org/2000/svg">
<path d="M4.48413 23.0722L8.5427 23.1663C9.15728 23.1748 9.73737 23.6863 9.82291 24.2949L10.4251 28.3097C10.7271 29.0559 11.6253 29.3678 12.3367 28.964L13.9495 28.0218C14.3417 27.7987 14.6461 27.2316 14.6176 26.78L14.3576 22.4981C14.3287 22.1881 14.4808 21.7535 14.6836 21.5234L17.1966 18.673C17.5669 18.2529 18.0533 18.3262 18.3023 18.8301L21.3438 25.2798C21.8229 26.2888 22.8145 26.4342 23.5552 25.5941L24.6926 24.3038C25.2834 23.6337 25.4623 22.4227 25.0714 21.616L21.6055 14.2767C21.5072 14.0657 21.5523 13.7322 21.711 13.5522L24.3562 10.5517C25.1851 9.61152 25.4737 7.89295 25.0127 6.72222C24.8449 6.30768 24.4949 5.99907 24.0625 5.88457C22.8433 5.57398 21.1656 6.08577 20.3368 7.02592L17.6916 10.0264C17.5329 10.2064 17.2077 10.293 16.9859 10.222L9.28005 7.71226C8.43952 7.41562 7.2605 7.74488 6.66974 8.41499L5.5323 9.70519C4.79165 10.5453 5.06024 11.5109 6.12133 11.8598L12.9014 14.0687C13.4314 14.2338 13.5662 14.726 13.1959 15.146L10.683 17.9965C10.4802 18.2265 10.068 18.432 9.76689 18.4509L5.48617 18.7297C5.03452 18.7582 4.5189 19.1212 4.33795 19.5483L3.60531 21.2665C3.27393 22.0053 3.68715 22.8673 4.48413 23.0722Z" stroke="#5D74F1" stroke-width="1.8" stroke-linecap="round" stroke-linejoin="round"/>
</svg>
