<svg width="200" height="68" viewBox="0 0 200 68" fill="none" xmlns="http://www.w3.org/2000/svg">
<path fill-rule="evenodd" clip-rule="evenodd" d="M118.815 53.5597C109.558 60.2045 96.1423 63.7497 84.5912 63.7497C68.3948 63.7497 53.8138 57.9153 42.7828 48.2114C41.9161 47.4483 42.6927 46.4084 43.7327 47.0027C55.6373 53.7488 70.357 57.8072 85.5619 57.8072C95.8164 57.8072 107.097 55.7408 117.469 51.4528C119.036 50.8045 120.347 52.4522 118.815 53.5597Z" fill="#DDE1F5"/>
<path fill-rule="evenodd" clip-rule="evenodd" d="M122.663 49.2717C121.484 47.7995 114.842 48.5761 111.86 48.9205C110.952 49.0286 110.814 48.2587 111.632 47.705C116.922 44.0787 125.602 45.1254 126.615 46.3409C127.627 47.5632 126.351 56.038 121.38 60.083C120.617 60.7042 119.889 60.3734 120.229 59.5495C121.345 56.8349 123.848 50.7505 122.663 49.2717Z" fill="#DDE1F5"/>
<path fill-rule="evenodd" clip-rule="evenodd" d="M112.069 22.1052V18.5802C112.069 18.0467 112.485 17.6888 112.984 17.6888H129.187C129.707 17.6888 130.123 18.0534 130.123 18.5802V21.5987C130.116 22.1052 129.68 22.7669 128.903 23.8136L120.507 35.4893C123.627 35.415 126.92 35.8675 129.749 37.4206C130.387 37.7718 130.56 38.285 130.609 38.7914V42.5528C130.609 43.066 130.026 43.667 129.416 43.3564C124.431 40.8105 117.81 40.5337 112.298 43.3834C111.736 43.6805 111.147 43.0863 111.147 42.573V39.0008C111.147 38.4268 111.154 37.4476 111.743 36.5765L121.47 22.9898H113.005C112.485 22.9898 112.069 22.6319 112.069 22.1052Z" fill="#5D74F1"/>
<path fill-rule="evenodd" clip-rule="evenodd" d="M52.9615 44.0992H48.0318C47.5604 44.0655 47.1859 43.7211 47.1513 43.2821V18.641C47.1513 18.148 47.5742 17.7564 48.1012 17.7564H52.698C53.1764 17.7766 53.5577 18.1345 53.5924 18.5802V21.8013H53.6825C54.882 18.6883 57.1354 17.2364 60.1722 17.2364C63.2576 17.2364 65.1851 18.6883 66.5717 21.8013C67.7643 18.6883 70.4753 17.2364 73.3804 17.2364C75.4465 17.2364 77.7068 18.067 79.0865 19.9308C80.6466 22.0039 80.3276 25.0157 80.3276 27.656L80.3207 43.2078C80.3207 43.7008 79.8978 44.0992 79.3708 44.0992H74.4481C73.9558 44.0655 73.5606 43.6805 73.5606 43.2078V30.1478C73.5606 29.1079 73.6577 26.5148 73.422 25.5289C73.0545 23.8745 71.9521 23.4085 70.5238 23.4085C69.3312 23.4085 68.0832 24.1851 67.5771 25.4276C67.0709 26.6701 67.1195 28.75 67.1195 30.1478V43.2078C67.1195 43.7008 66.6965 44.0992 66.1696 44.0992H61.2469C60.7477 44.0655 60.3594 43.6805 60.3594 43.2078L60.3525 30.1478C60.3525 27.3994 60.817 23.3545 57.3157 23.3545C53.7727 23.3545 53.9114 27.2981 53.9114 30.1478V43.2078C53.9114 43.7008 53.4884 44.0992 52.9615 44.0992Z" fill="#5D74F1"/>
<path fill-rule="evenodd" clip-rule="evenodd" d="M144.073 17.2364C151.388 17.2364 155.347 23.3545 155.347 31.1338C155.347 38.6497 150.972 44.6124 144.073 44.6124C136.89 44.6124 132.98 38.4944 132.98 30.8704C132.98 23.1992 136.939 17.2364 144.073 17.2364ZM144.115 22.2673C140.482 22.2673 140.253 27.0888 140.253 30.0938C140.253 33.1056 140.204 39.5343 144.073 39.5343C147.894 39.5343 148.074 34.3481 148.074 31.1878C148.074 29.1079 147.984 26.6229 147.339 24.651C146.784 22.9358 145.682 22.2673 144.115 22.2673Z" fill="#5D74F1"/>
<path fill-rule="evenodd" clip-rule="evenodd" d="M164.832 44.0992H159.923C159.431 44.0655 159.036 43.6805 159.036 43.2078L159.029 18.56C159.07 18.1075 159.479 17.7564 159.979 17.7564H164.548C164.978 17.7766 165.331 18.0602 165.428 18.4452V22.2132H165.518C166.898 18.8436 168.833 17.2364 172.237 17.2364C174.449 17.2364 176.605 18.013 177.992 20.1401C179.281 22.112 179.281 25.4276 179.281 27.8114V43.3226C179.226 43.7548 178.817 44.0992 178.331 44.0992H173.388C172.937 44.0655 172.563 43.7413 172.514 43.3226V29.9385C172.514 27.2441 172.833 23.3005 169.429 23.3005C168.229 23.3005 167.127 24.0838 166.579 25.2723C165.886 26.7782 165.796 28.2773 165.796 29.9385V43.2078C165.789 43.7008 165.359 44.0992 164.832 44.0992Z" fill="#5D74F1"/>
<path fill-rule="evenodd" clip-rule="evenodd" d="M99.1519 32.329C99.1519 34.1995 99.2004 35.7594 98.2298 37.4206C97.4463 38.7712 96.1983 39.6018 94.8185 39.6018C92.9257 39.6018 91.8164 38.1972 91.8164 36.1241C91.8164 32.0318 95.5812 31.289 99.1519 31.289V32.329ZM104.123 44.0317C103.797 44.3153 103.326 44.3355 102.958 44.1465C101.322 42.8229 101.024 42.2084 100.13 40.9456C97.4255 43.6332 95.5049 44.4368 92.0036 44.4368C87.8504 44.4368 84.6264 41.945 84.6264 36.9547C84.6264 33.0583 86.7896 30.4044 89.8819 29.1079C92.5582 27.9599 96.2953 27.7573 99.1519 27.4399V26.8186C99.1519 25.6774 99.242 24.3268 98.5487 23.3409C97.9524 22.4563 96.8015 22.0916 95.7823 22.0916C93.9033 22.0916 92.2324 23.0303 91.8233 24.9751C91.7401 25.4073 91.4142 25.8327 90.9635 25.853L86.1864 25.3533C85.7843 25.2655 85.3336 24.9481 85.4515 24.3471C86.547 18.7017 91.7886 17 96.4756 17C98.8746 17 102.008 17.6213 103.901 19.3905C106.3 21.5717 106.071 24.4822 106.071 27.6492V35.1314C106.071 37.3801 107.028 38.366 107.93 39.5815C108.242 40.0137 108.311 40.5337 107.909 40.8578C106.903 41.6749 105.115 43.1943 104.13 44.0452L104.123 44.0317Z" fill="#5D74F1"/>
<path fill-rule="evenodd" clip-rule="evenodd" d="M34.5255 32.329C34.5255 34.1995 34.574 35.7594 33.6033 37.4206C32.8199 38.7712 31.5788 39.6018 30.1921 39.6018C28.2993 39.6018 27.1969 38.1972 27.1969 36.1241C27.1969 32.0318 30.9617 31.289 34.5255 31.289V32.329ZM39.4967 44.0316C39.1709 44.3153 38.6994 44.3355 38.3319 44.1464C36.6956 42.8229 36.4044 42.2084 35.5031 40.9456C32.7991 43.6332 30.8854 44.4368 27.3771 44.4368C23.231 44.4368 20 41.945 20 36.9547C20 33.0583 22.1702 30.4044 25.2555 29.1079C27.9318 27.9599 31.6689 27.7573 34.5255 27.4399V26.8186C34.5255 25.6774 34.6156 24.3268 33.9292 23.3409C33.326 22.4563 32.1751 22.0916 31.1628 22.0916C29.2838 22.0916 27.6059 23.0303 27.1969 24.9751C27.1137 25.4073 26.7878 25.8327 26.3441 25.853L21.56 25.3533C21.1579 25.2655 20.7141 24.9481 20.8251 24.3471C21.9275 18.7017 27.1622 17 31.8492 17C34.2481 17 37.382 17.6213 39.2749 19.3905C41.6738 21.5717 41.445 24.4822 41.445 27.6492V35.1314C41.445 37.3801 42.4018 38.366 43.3032 39.5815C43.6221 40.0137 43.6914 40.5337 43.2893 40.8578C42.2839 41.6749 40.4951 43.1943 39.5106 44.0451L39.4967 44.0316Z" fill="#5D74F1"/>
</svg>
