<svg width="154" height="87" viewBox="0 0 154 87" fill="none" xmlns="http://www.w3.org/2000/svg">
<path d="M6.97942 37.7485L2.0043 33.7927C1.73663 33.5799 1.34155 33.7705 1.34155 34.1125V86.5201C1.34155 86.7457 1.52445 86.9286 1.75006 86.9286H152.543C152.768 86.9286 152.951 86.7457 152.951 86.5201V1.7518C152.951 1.38568 152.507 1.20442 152.251 1.46614L143.677 10.2311C143.654 10.2548 143.633 10.2813 143.617 10.3099L134.787 25.3542C134.609 25.6565 134.159 25.6097 134.047 25.2773L132.06 19.3536C131.936 18.982 131.41 18.9821 131.286 19.3538L126.344 34.1203C126.222 34.4862 125.707 34.4941 125.574 34.1322L119.879 18.7069C119.747 18.3484 119.238 18.3517 119.111 18.7119L117.095 24.3967C117.062 24.4904 116.996 24.5687 116.909 24.6171L111.009 27.9022C110.796 28.0207 110.528 27.9278 110.433 27.7031L105.209 15.2326C105.065 14.8895 104.575 14.9014 104.448 15.2511L92.6081 47.872C92.5209 48.1122 92.237 48.2143 92.0168 48.0846L87.819 45.6125C87.5971 45.4818 87.3111 45.5866 87.2261 45.8296L82.7927 58.5034C82.6724 58.8473 82.1961 58.8736 82.0387 58.545L77.2576 48.5661C77.1897 48.4243 77.0464 48.3341 76.8892 48.3341H69.4387C69.2741 48.3341 69.1256 48.4329 69.0619 48.5847L66.945 53.6342C66.7971 53.987 66.2888 53.9612 66.1775 53.5952L61.8375 39.3335C61.7194 38.9452 61.1687 38.9481 61.0547 39.3376L56.1547 56.0778C56.0511 56.4317 55.5687 56.4781 55.3996 56.1504L50.8492 47.3313C50.7105 47.0624 50.3378 47.0324 50.1578 47.2757L40.9379 59.7381C40.7646 59.9723 40.409 59.9551 40.2591 59.7053L33.47 48.3856C33.4495 48.3515 33.4341 48.3145 33.4244 48.2758L27.2685 23.9694C27.1705 23.5826 26.633 23.5512 26.4908 23.924L19.6183 41.9361C19.4929 42.2649 19.0381 42.2918 18.8748 41.9801L12.9644 30.7016C12.8207 30.4273 12.4359 30.4065 12.2634 30.6637L7.57291 37.6563C7.43998 37.8545 7.1662 37.897 6.97942 37.7485Z" fill="url(#paint0_linear_38_506)"/>
<path d="M1.34155 32.8735L6.9798 37.3479C7.16649 37.496 7.43984 37.4535 7.57278 37.2557L12.2636 30.2761C12.4362 30.0193 12.8205 30.0401 12.9643 30.314L18.875 41.5713C19.0384 41.8826 19.4927 41.8557 19.6182 41.5273L26.4909 23.5495C26.6333 23.1771 27.1703 23.2084 27.2684 23.5949L33.4243 47.8543C33.4341 47.893 33.4496 47.93 33.4701 47.9643L40.2593 59.2621C40.4092 59.5116 40.7643 59.5288 40.9376 59.295L50.1581 46.856C50.3381 46.6131 50.7103 46.6431 50.8491 46.9116L55.3998 55.7142C55.569 56.0415 56.051 55.9951 56.1547 55.6415L61.0547 38.9334C61.1689 38.5442 61.7192 38.5413 61.8375 38.9292L66.1775 53.1638C66.289 53.5294 66.7968 53.5553 66.9449 53.2028L69.0618 48.163C69.1255 48.0113 69.274 47.9127 69.4385 47.9127H76.8894C77.0465 47.9127 77.1897 48.0028 77.2577 48.1444L82.0388 58.1041C82.1964 58.4324 82.6722 58.4061 82.7926 58.0625L87.226 45.4132C87.3111 45.1704 87.5968 45.0657 87.8186 45.1961L92.0172 47.6639C92.2374 47.7933 92.5209 47.6913 92.6081 47.4514L104.448 14.8934C104.575 14.5441 105.065 14.5322 105.209 14.8749L110.433 27.3215C110.528 27.5459 110.796 27.6387 111.008 27.5205L116.909 24.2416C116.996 24.1933 117.062 24.1149 117.095 24.0212L119.111 18.3475C119.239 17.9876 119.746 17.9843 119.879 18.3425L125.574 33.7385C125.707 34.1 126.222 34.0921 126.344 33.7266L131.286 18.9882C131.41 18.6168 131.936 18.6167 132.06 18.988L134.047 24.9006C134.159 25.2326 134.609 25.2795 134.787 24.9776L143.61 9.9725C143.631 9.93704 143.657 9.90494 143.688 9.87728L152.61 1.76782" stroke="#5D74F1" stroke-width="0.953181" stroke-linecap="round"/>
<defs>
<linearGradient id="paint0_linear_38_506" x1="77.1464" y1="0.75" x2="77.1464" y2="86.9286" gradientUnits="userSpaceOnUse">
<stop stop-color="#5B72EC" stop-opacity="0.4"/>
<stop offset="0.9999" stop-color="#5B72EC" stop-opacity="0.02"/>
<stop offset="1" stop-color="#D9D9D9" stop-opacity="0"/>
</linearGradient>
</defs>
</svg>
