<svg width="127" height="72" viewBox="0 0 127 72" fill="none" xmlns="http://www.w3.org/2000/svg">
<path d="M5.59864 30.5918L1.49254 27.327C1.27162 27.1513 0.945557 27.3087 0.945557 27.5909V70.8443C0.945557 71.0305 1.0965 71.1814 1.28271 71.1814H125.736C125.922 71.1814 126.073 71.0305 126.073 70.8443V0.882721C126.073 0.580556 125.706 0.430954 125.495 0.646958L118.419 7.88089C118.4 7.90049 118.383 7.92235 118.369 7.946L111.082 20.3624C110.935 20.6119 110.563 20.5733 110.471 20.299L108.831 15.4099C108.729 15.1032 108.295 15.1034 108.192 15.4102L104.114 27.5974C104.013 27.8993 103.588 27.9058 103.478 27.6071L98.7777 14.8762C98.6685 14.5803 98.249 14.5831 98.1436 14.8803L96.4803 19.5721C96.4529 19.6495 96.3982 19.7142 96.3265 19.7541L91.457 22.4654C91.2814 22.5632 91.0597 22.4865 90.982 22.3011L86.6702 12.0088C86.5516 11.7257 86.1471 11.7355 86.0423 12.0241L76.2704 38.947C76.1984 39.1453 75.9641 39.2295 75.7824 39.1225L72.3178 37.0822C72.1346 36.9743 71.8986 37.0608 71.8284 37.2614L68.1694 47.7214C68.0701 48.0052 67.6771 48.0269 67.5471 47.7557L63.6012 39.5198C63.5451 39.4028 63.4269 39.3284 63.2971 39.3284H57.148C57.0121 39.3284 56.8896 39.4099 56.8371 39.5352L55.0899 43.7027C54.9678 43.9939 54.5483 43.9726 54.4564 43.6705L50.8746 31.8999C50.777 31.5795 50.3225 31.5819 50.2284 31.9033L46.1844 45.7195C46.0989 46.0116 45.7007 46.0498 45.5612 45.7794L41.8056 38.5008C41.6911 38.2788 41.3835 38.2541 41.235 38.4548L33.6255 48.7404C33.4825 48.9337 33.189 48.9195 33.0653 48.7133L27.4621 39.3709C27.4452 39.3427 27.4325 39.3122 27.4244 39.2803L22.3438 19.2195C22.2629 18.9003 21.8193 18.8744 21.7019 19.1821L16.0299 34.048C15.9263 34.3193 15.551 34.3415 15.4162 34.0843L10.5383 24.7758C10.4196 24.5494 10.102 24.5322 9.95963 24.7445L6.08847 30.5157C5.97876 30.6793 5.7528 30.7144 5.59864 30.5918Z" fill="url(#paint0_linear_38_149)"/>
<path d="M0.945557 26.5685L5.59896 30.2613C5.75304 30.3836 5.97864 30.3485 6.08836 30.1853L9.95981 24.4248C10.1022 24.2128 10.4194 24.23 10.5381 24.4561L15.4164 33.747C15.5513 34.004 15.9262 33.9818 16.0298 33.7107L21.702 18.8732C21.8195 18.5657 22.2628 18.5916 22.3437 18.9106L27.4243 38.9326C27.4324 38.9645 27.4452 38.9951 27.4621 39.0233L33.0654 48.3478C33.1891 48.5536 33.4823 48.5678 33.6253 48.3749L41.2352 38.1086C41.3837 37.9082 41.6909 37.9329 41.8055 38.1545L45.5613 45.4195C45.701 45.6897 46.0988 45.6514 46.1843 45.3596L50.2285 31.5699C50.3227 31.2487 50.7769 31.2462 50.8745 31.5665L54.4565 43.3146C54.5485 43.6164 54.9676 43.6377 55.0898 43.3468L56.837 39.1873C56.8895 39.0621 57.0121 38.9807 57.1478 38.9807H63.2973C63.4269 38.9807 63.5451 39.0551 63.6012 39.172L67.5472 47.392C67.6773 47.6629 68.07 47.6412 68.1694 47.3576L71.8284 36.9178C71.8986 36.7174 72.1344 36.6311 72.3174 36.7387L75.7827 38.7755C75.9644 38.8822 76.1984 38.7981 76.2704 38.6L86.0424 11.729C86.1472 11.4407 86.5514 11.4309 86.6701 11.7138L90.982 21.9863C91.0598 22.1715 91.2811 22.2481 91.4567 22.1505L96.3264 19.4443C96.3982 19.4045 96.4529 19.3398 96.4804 19.2625L98.1437 14.5798C98.2492 14.2828 98.6683 14.28 98.7776 14.5757L103.478 27.2824C103.588 27.5808 104.012 27.5743 104.114 27.2726L108.192 15.1086C108.295 14.8021 108.728 14.8019 108.831 15.1084L110.471 19.9883C110.563 20.2623 110.935 20.3009 111.081 20.0518L118.364 7.66766C118.381 7.6384 118.403 7.61191 118.428 7.58908L125.791 0.896118" stroke="#5D74F1" stroke-width="0.786687" stroke-linecap="round"/>
<defs>
<linearGradient id="paint0_linear_38_149" x1="63.5094" y1="0.0559082" x2="63.5094" y2="71.1814" gradientUnits="userSpaceOnUse">
<stop stop-color="#5B72EC" stop-opacity="0.4"/>
<stop offset="0.9999" stop-color="#5B72EC" stop-opacity="0.02"/>
<stop offset="1" stop-color="#D9D9D9" stop-opacity="0"/>
</linearGradient>
</defs>
</svg>
