<svg width="582" height="582" viewBox="0 0 582 582" fill="none" xmlns="http://www.w3.org/2000/svg">
<g filter="url(#filter0_f_38_489)">
<rect x="191" y="191" width="200" height="200" rx="17.1051" fill="#212227" fill-opacity="0.08"/>
</g>
<rect x="195" y="195" width="192" height="192" rx="14" fill="#F4F4F4"/>
<rect x="205" y="205" width="172" height="172" rx="12" fill="white"/>
<path d="M297 237C297 236.448 297.448 235.999 298 236.01C304.751 236.142 311.413 237.614 317.596 240.344C324.085 243.208 329.904 247.394 334.684 252.635C339.463 257.876 343.096 264.056 345.352 270.78C347.502 277.189 348.355 283.957 347.866 290.692C347.826 291.243 347.338 291.647 346.788 291.597L297.908 287.084C297.394 287.036 297 286.605 297 286.088V237Z" fill="#5D74F1"/>
<path d="M289 247C289 246.448 288.552 245.999 288 246.01C278.854 246.197 269.936 248.941 262.259 253.94C254.303 259.121 248.024 266.503 244.184 275.187C240.345 283.871 239.112 293.483 240.634 302.855C242.156 312.226 246.368 320.954 252.757 327.977C259.147 335 267.44 340.014 276.627 342.412C285.814 344.81 295.499 344.486 304.506 341.482C313.513 338.477 321.452 332.921 327.36 325.488C333.06 318.316 336.631 309.696 337.678 300.608C337.741 300.059 337.337 299.571 336.787 299.519L289.906 295.086C289.392 295.037 289 294.606 289 294.09V247Z" fill="#BEC7F9"/>
<defs>
<filter id="filter0_f_38_489" x="0.943176" y="0.943176" width="580.114" height="580.114" filterUnits="userSpaceOnUse" color-interpolation-filters="sRGB">
<feFlood flood-opacity="0" result="BackgroundImageFix"/>
<feBlend mode="normal" in="SourceGraphic" in2="BackgroundImageFix" result="shape"/>
<feGaussianBlur stdDeviation="95.0284" result="effect1_foregroundBlur_38_489"/>
</filter>
</defs>
</svg>
