<svg width="200" height="68" viewBox="0 0 200 68" fill="none" xmlns="http://www.w3.org/2000/svg">
<g clip-path="url(#clip0_38_457)">
<path fill-rule="evenodd" clip-rule="evenodd" d="M193.633 46.6355C193.752 48.0122 194.848 49.7647 196.746 49.7647H197.856C198.287 49.7647 198.64 49.4101 198.64 48.977V24.4263H198.634C198.613 24.0127 198.273 23.6814 197.856 23.6814H194.416C193.999 23.6814 193.659 24.0127 193.638 24.4263H193.633V26.4211C191.524 23.8088 188.201 22.7245 184.869 22.7245C177.294 22.7245 171.153 28.9034 171.153 36.5259C171.153 44.1489 177.294 50.3279 184.869 50.3279C188.201 50.3279 191.834 49.0275 193.633 46.6324V46.6355ZM184.882 45.4976C180.064 45.4976 176.159 41.4812 176.159 36.5259C176.159 31.5715 180.064 27.555 184.882 27.555C189.701 27.555 193.606 31.5715 193.606 36.5259C193.606 41.4812 189.701 45.4976 184.882 45.4976Z" fill="#5D74F1"/>
<path fill-rule="evenodd" clip-rule="evenodd" d="M166.802 34.7758C166.802 27.6147 162.313 22.7837 155.153 22.7837C151.735 22.7837 148.933 24.7723 147.943 26.4805C147.73 25.1448 147.025 23.7408 144.839 23.7408H143.725C143.294 23.7408 142.943 24.0957 142.943 24.5288V46.6969C142.943 46.6976 142.943 46.6992 142.943 46.7003V49.0816H142.947C142.969 49.4945 143.31 49.8261 143.726 49.8261H147.166C147.219 49.8261 147.27 49.8198 147.32 49.8101C147.343 49.8056 147.364 49.7966 147.386 49.7903C147.412 49.7824 147.439 49.7763 147.463 49.7662C147.494 49.7534 147.521 49.7363 147.55 49.7203C147.564 49.7117 147.578 49.7057 147.592 49.6968C147.626 49.6744 147.658 49.6476 147.688 49.6203C147.693 49.6152 147.699 49.6118 147.704 49.6072C147.738 49.5739 147.77 49.5372 147.797 49.499C147.883 49.3801 147.936 49.2361 147.944 49.0816H147.949V34.5788C147.949 30.7328 151.048 27.6147 154.87 27.6147C158.693 27.6147 161.792 30.7328 161.792 34.5788L161.795 46.7012L161.796 46.6969C161.796 46.7077 161.798 46.7186 161.798 46.7302V49.0816H161.802C161.825 49.4945 162.165 49.8261 162.581 49.8261H166.021C166.074 49.8261 166.126 49.8198 166.175 49.8101C166.196 49.8063 166.215 49.798 166.235 49.7925C166.263 49.7842 166.292 49.7772 166.319 49.7662C166.347 49.7545 166.372 49.7381 166.399 49.723C166.415 49.7138 166.432 49.7072 166.448 49.6968C166.48 49.6757 166.509 49.6503 166.537 49.6253C166.545 49.6185 166.553 49.6134 166.56 49.6066C166.592 49.5749 166.621 49.5408 166.648 49.505C166.65 49.5023 166.652 49.5001 166.654 49.4974C166.739 49.3795 166.791 49.2372 166.8 49.0836C166.8 49.0825 166.8 49.0816 166.8 49.0816H166.805L166.802 34.7758Z" fill="#5D74F1"/>
<path fill-rule="evenodd" clip-rule="evenodd" d="M130.973 46.6354C131.093 48.0122 132.189 49.7646 134.086 49.7646H135.196C135.627 49.7646 135.979 49.41 135.979 48.9769V24.4263H135.975C135.952 24.0127 135.612 23.6814 135.196 23.6814H131.756C131.34 23.6814 131 24.0127 130.977 24.4263H130.973V26.4211C128.865 23.8088 125.542 22.7245 122.209 22.7245C114.634 22.7245 108.493 28.9034 108.493 36.526C108.493 44.1488 114.634 50.328 122.209 50.328C125.542 50.328 129.174 49.0276 130.973 46.6323L130.973 46.6354ZM122.222 45.4975C117.405 45.4975 113.499 41.4813 113.499 36.526C113.499 31.5715 117.405 27.555 122.222 27.555C127.04 27.555 130.945 31.5715 130.945 36.526C130.945 41.4813 127.04 45.4975 122.222 45.4975Z" fill="#5D74F1"/>
<path fill-rule="evenodd" clip-rule="evenodd" d="M88.1478 43.1193C90.4445 44.7202 92.9515 45.4979 95.3606 45.4979C97.6557 45.4979 100.028 44.3006 100.028 42.2168C100.028 39.4348 94.8583 39.0019 91.6099 37.891C88.3608 36.7802 85.5625 34.4837 85.5625 30.7648C85.5625 25.0744 90.6017 22.7241 95.305 22.7241C98.2849 22.7241 101.36 23.7129 103.353 25.1293C104.039 25.6527 103.621 26.2536 103.621 26.2536L101.719 28.9881C101.505 29.2961 101.131 29.5622 100.594 29.2288C100.057 28.8957 98.1743 27.5547 95.305 27.5547C92.4352 27.5547 90.7067 28.8881 90.7067 30.5409C90.7067 32.5228 92.9533 33.1461 95.5847 33.8216C100.17 35.0653 105.173 36.5603 105.173 42.2168C105.173 47.2305 100.512 50.329 95.3606 50.329C91.4571 50.329 88.1335 49.2093 85.3461 47.1512C84.7654 46.5664 85.1709 46.0234 85.1709 46.0234L87.0644 43.3028C87.4497 42.7941 87.9354 42.9715 88.1478 43.1193Z" fill="#5D74F1"/>
<path fill-rule="evenodd" clip-rule="evenodd" d="M74.9215 46.6354C75.0418 48.0122 76.1372 49.7646 78.0346 49.7646H79.1451C79.5754 49.7646 79.9282 49.41 79.9282 48.9769V24.4263H79.9233C79.9008 24.0127 79.5609 23.6814 79.1451 23.6814H75.7047C75.2886 23.6814 74.9487 24.0127 74.9257 24.4263H74.9215V26.4211C72.8136 23.8088 69.4903 22.7245 66.1576 22.7245C58.5824 22.7245 52.4414 28.9034 52.4414 36.526C52.4414 44.1488 58.5824 50.328 66.1576 50.328C69.4903 50.328 73.1222 49.0276 74.921 46.6323L74.9215 46.6354ZM66.171 45.4975C61.3532 45.4975 57.4475 41.4813 57.4475 36.526C57.4475 31.5715 61.3532 27.555 66.171 27.555C70.9887 27.555 74.894 31.5715 74.894 36.526C74.894 41.4813 70.9887 45.4975 66.171 45.4975Z" fill="#5D74F1"/>
<path fill-rule="evenodd" clip-rule="evenodd" d="M33.2119 37.4645C28.1142 37.4645 23.9814 41.6195 23.9814 46.7453C23.9814 51.8708 28.1142 56.0258 33.2119 56.0258C38.3098 56.0258 42.4424 51.8708 42.4424 46.7453C42.4424 41.6195 38.3098 37.4645 33.2119 37.4645ZM9.23046 37.4654C4.13266 37.4654 0 41.6195 0 46.7453C0 51.8708 4.13266 56.0258 9.23046 56.0258C14.3285 56.0258 18.4613 51.8708 18.4613 46.7453C18.4613 41.6195 14.3285 37.4654 9.23046 37.4654ZM30.4515 25.8636C30.4515 30.9895 26.3191 35.1449 21.2212 35.1449C16.1232 35.1449 11.9908 30.9895 11.9908 25.8636C11.9908 20.7388 16.1232 16.5834 21.2212 16.5834C26.3191 16.5834 30.4515 20.7388 30.4515 25.8636Z" fill="#5D74F1"/>
</g>
<defs>
<clipPath id="clip0_38_457">
<rect width="200" height="68" fill="white"/>
</clipPath>
</defs>
</svg>
