<svg width="200" height="68" viewBox="0 0 200 68" fill="none" xmlns="http://www.w3.org/2000/svg">
<path d="M74.4232 18.0931H63.4089C62.6552 18.0931 62.0142 18.6478 61.8967 19.4015L57.442 48.0098C57.3534 48.5742 57.785 49.0832 58.3503 49.0832H63.6086C64.3623 49.0832 65.0033 48.5286 65.1209 47.7733L66.3223 40.0571C66.4383 39.3018 67.0809 38.7472 67.833 38.7472H71.3197C78.5751 38.7472 82.7624 35.1909 83.856 28.1437C84.3488 25.0605 83.8769 22.638 82.4516 20.9414C80.8862 19.0785 78.1097 18.0931 74.4232 18.0931ZM75.6939 28.5417C75.0916 32.5449 72.0719 32.5449 69.152 32.5449H67.49L68.656 25.0686C68.7252 24.6168 69.1117 24.284 69.5627 24.284H70.3245C72.3134 24.284 74.1897 24.284 75.1592 25.4324C75.7374 26.1176 75.9145 27.1355 75.6939 28.5417Z" fill="#5D74F1"/>
<path d="M107.347 28.4128H102.073C101.623 28.4128 101.235 28.7456 101.166 29.1975L100.932 30.6918L100.564 30.1502C99.4218 28.4715 96.8756 27.9104 94.3342 27.9104C88.5058 27.9104 83.5277 32.3818 82.5582 38.6542C82.0541 41.7831 82.7707 44.7749 84.523 46.8613C86.1303 48.7798 88.4301 49.5791 91.1663 49.5791C95.8626 49.5791 98.4668 46.5204 98.4668 46.5204L98.2316 48.0049C98.1431 48.5726 98.5747 49.0816 99.1367 49.0816H103.888C104.643 49.0816 105.281 48.5269 105.4 47.7716L108.251 29.4862C108.341 28.9234 107.911 28.4128 107.347 28.4128ZM99.9952 38.8108C99.4862 41.863 97.0946 43.9119 94.0443 43.9119C92.5127 43.9119 91.2887 43.4144 90.5028 42.4715C89.7233 41.5351 89.427 40.2023 89.675 38.7178C90.1501 35.6917 92.582 33.5759 95.5856 33.5759C97.0833 33.5759 98.3009 34.08 99.1029 35.0311C99.9066 35.9919 100.225 37.3328 99.9952 38.8108Z" fill="#5D74F1"/>
<path d="M135.438 28.4127H130.137C129.632 28.4127 129.157 28.6672 128.87 29.093L121.56 40L118.461 29.5188C118.266 28.863 117.669 28.4127 116.992 28.4127H111.784C111.151 28.4127 110.711 29.0392 110.913 29.6428L116.751 46.9967L111.262 54.8449C110.831 55.4632 111.265 56.3131 112.011 56.3131H117.305C117.807 56.3131 118.278 56.0651 118.563 55.6475L136.191 29.8728C136.613 29.2561 136.18 28.4127 135.438 28.4127Z" fill="#5D74F1"/>
<path d="M152.986 18.0932H141.97C141.218 18.0932 140.577 18.6478 140.459 19.4015L136.004 48.0098C135.916 48.5742 136.347 49.0832 136.909 49.0832H142.562C143.087 49.0832 143.537 48.695 143.619 48.1664L144.883 40.0572C144.999 39.3019 145.642 38.7472 146.394 38.7472H149.879C157.136 38.7472 161.322 35.191 162.417 28.1437C162.911 25.0605 162.436 22.638 161.011 20.9414C159.447 19.0785 156.672 18.0932 152.986 18.0932ZM154.256 28.5417C153.656 32.545 150.636 32.545 147.714 32.545H146.054L147.222 25.0687C147.291 24.6168 147.674 24.284 148.127 24.284H148.888C150.876 24.284 152.754 24.284 153.723 25.4324C154.301 26.1176 154.477 27.1355 154.256 28.5417Z" fill="#5D74F1"/>
<path d="M185.908 28.4128H180.637C180.184 28.4128 179.799 28.7456 179.731 29.1975L179.498 30.6918L179.127 30.1502C177.986 28.4716 175.441 27.9104 172.9 27.9104C167.071 27.9104 162.095 32.3818 161.125 38.6542C160.623 41.7831 161.336 44.7749 163.088 46.8614C164.699 48.7798 166.996 49.5791 169.732 49.5791C174.428 49.5791 177.032 46.5204 177.032 46.5204L176.797 48.0049C176.709 48.5726 177.14 49.0816 177.705 49.0816H182.455C183.207 49.0816 183.848 48.5269 183.965 47.7716L186.818 29.4862C186.905 28.9234 186.473 28.4128 185.908 28.4128ZM178.556 38.8108C178.05 41.863 175.655 43.9119 172.605 43.9119C171.077 43.9119 169.849 43.4144 169.063 42.4715C168.284 41.5351 167.991 40.2023 168.236 38.7178C168.714 35.6918 171.143 33.5759 174.146 33.5759C175.644 33.5759 176.862 34.08 177.664 35.0311C178.47 35.9919 178.789 37.3329 178.556 38.8108Z" fill="#5D74F1"/>
<path d="M192.126 18.8777L187.605 48.0097C187.517 48.5742 187.948 49.0831 188.51 49.0831H193.055C193.81 49.0831 194.451 48.5285 194.567 47.7732L199.025 19.1665C199.114 18.602 198.682 18.0914 198.12 18.0914H193.031C192.582 18.0931 192.195 18.4258 192.126 18.8777Z" fill="#5D74F1"/>
<path d="M11.7018 54.6427L12.5441 49.2235L10.6679 49.1795H1.70862L7.93485 9.1911C7.95418 9.07038 8.01699 8.95782 8.10879 8.87789C8.20059 8.79795 8.31815 8.75391 8.44055 8.75391H23.5471C28.5623 8.75391 32.0233 9.811 33.8302 11.8974C34.6774 12.8762 35.2169 13.8991 35.4778 15.0247C35.7516 16.2057 35.7564 17.6168 35.4891 19.3379L35.4697 19.4635V20.5662L36.3169 21.0524C37.0303 21.4357 37.5972 21.8746 38.0321 22.377C38.7568 23.2139 39.2255 24.2775 39.4235 25.5385C39.6281 26.8354 39.5604 28.3786 39.2255 30.1257C38.8389 32.1355 38.2141 33.8859 37.3702 35.3182C36.5939 36.6379 35.605 37.7326 34.431 38.5808C33.3101 39.3867 31.9782 39.9984 30.4723 40.39C29.0132 40.775 27.3496 40.9691 25.5248 40.9691H24.3492C23.5085 40.9691 22.692 41.2758 22.051 41.8255C21.4084 42.3867 20.9832 43.1534 20.8528 43.9919L20.7642 44.4797L19.2761 54.031L19.2084 54.3817C19.1907 54.4927 19.1601 54.5481 19.115 54.5857C19.0748 54.6199 19.0168 54.6427 18.9604 54.6427H11.7018Z" fill="#5D74F1"/>
<path d="M37.1191 19.5906C37.074 19.8826 37.0225 20.1811 36.9645 20.4878C34.9723 30.8483 28.1566 34.4274 19.4518 34.4274H15.0197C13.9551 34.4274 13.0581 35.2104 12.8922 36.274L10.623 50.8514L9.98039 54.9836C9.87248 55.6818 10.404 56.3114 11.0997 56.3114H18.9606C19.8915 56.3114 20.6822 55.6263 20.8288 54.6964L20.9061 54.2919L22.3862 44.7781L22.4812 44.256C22.6261 43.3229 23.4185 42.6378 24.3494 42.6378H25.525C33.1411 42.6378 39.1033 39.5056 40.8458 30.4421C41.5738 26.6558 41.1969 23.4943 39.2707 21.2708C38.6877 20.6004 37.9646 20.0441 37.1191 19.5906Z" fill="#DDE1F5"/>
<path d="M35.0349 18.749C34.7305 18.6592 34.4164 18.5777 34.0943 18.5043C33.7706 18.4325 33.4389 18.3689 33.0974 18.3134C31.9024 18.1176 30.5931 18.0247 29.1903 18.0247H17.3499C17.0584 18.0247 16.7813 18.0915 16.5333 18.2123C15.9874 18.4782 15.5815 19.0018 15.4833 19.6429L12.9644 35.8027L12.892 36.2742C13.0579 35.2105 13.9549 34.4275 15.0195 34.4275H19.4516C28.1564 34.4275 34.9721 30.8468 36.9643 20.4879C37.0239 20.1813 37.0738 19.8827 37.1189 19.5907C36.6148 19.3199 36.0688 19.0883 35.481 18.8909C35.336 18.8419 35.1863 18.7946 35.0349 18.749Z" fill="#566EF0"/>
<path d="M15.4834 19.6429C15.5817 19.0017 15.9875 18.4781 16.5335 18.2138C16.7831 18.0931 17.0585 18.0262 17.35 18.0262H29.1905C30.5932 18.0262 31.9026 18.1192 33.0976 18.315C33.439 18.3704 33.7708 18.434 34.0945 18.5058C34.4166 18.5792 34.7306 18.6608 35.035 18.7505C35.1864 18.7962 35.3362 18.8435 35.4827 18.8908C36.0706 19.0882 36.6166 19.3215 37.1206 19.5907C37.7133 15.762 37.1158 13.1551 35.0721 10.7946C32.819 8.19593 28.7524 7.08337 23.5489 7.08337H8.44228C7.37934 7.08337 6.47262 7.8664 6.30835 8.93165L0.0160871 49.3311C-0.107922 50.1305 0.500851 50.8515 1.29644 50.8515H10.6229L12.9646 35.8026L15.4834 19.6429Z" fill="#5D74F1"/>
</svg>
