<svg width="33" height="36" viewBox="0 0 33 36" fill="none" xmlns="http://www.w3.org/2000/svg">
<g clip-path="url(#clip0_38_566)">
<path d="M20.3323 3.50533L17.2627 2.68066L14.6758 12.3601L12.3404 3.62144L9.27063 4.44611L11.7939 13.8876L5.50896 7.58627L3.26179 9.83929L10.1556 16.7511L1.57045 14.4447L0.747925 17.5224L10.1283 20.0424C10.0209 19.578 9.9641 19.0941 9.9641 18.5969C9.9641 15.0774 12.8098 12.2243 16.3201 12.2243C19.8304 12.2243 22.6761 15.0774 22.6761 18.5969C22.6761 19.0909 22.6199 19.5718 22.5139 20.0335L31.0389 22.3237L31.8614 19.246L22.4437 16.716L31.0295 14.4094L30.2069 11.3318L20.7896 13.8617L27.0746 7.5604L24.8274 5.30737L18.0292 12.1233L20.3323 3.50533Z" fill="#5D74F1"/>
<path d="M22.5049 20.0693C22.2417 21.1849 21.6861 22.1871 20.9237 22.99L27.0997 29.1822L29.3469 26.9291L22.5049 20.0693Z" fill="#5D74F1"/>
<path d="M20.8614 23.0548C20.0898 23.8449 19.1147 24.4345 18.0212 24.7383L20.2686 33.1473L23.3382 32.3226L20.8614 23.0548Z" fill="#5D74F1"/>
<path d="M17.9066 24.7691C17.3993 24.8999 16.8675 24.9694 16.3195 24.9694C15.7325 24.9694 15.1639 24.8895 14.6242 24.7402L12.3749 33.1568L15.4445 33.9814L17.9066 24.7691Z" fill="#5D74F1"/>
<path d="M14.5157 24.7091C13.4389 24.3902 12.4812 23.793 11.7254 23.0007L5.53418 29.208L7.78135 31.461L14.5157 24.7091Z" fill="#5D74F1"/>
<path d="M11.6744 22.9458C10.9315 22.1484 10.3904 21.1596 10.1328 20.0613L1.57996 22.359L2.40247 25.4366L11.6744 22.9458Z" fill="#5D74F1"/>
</g>
<defs>
<clipPath id="clip0_38_566">
<rect width="32" height="32.0833" fill="white" transform="translate(0.5 1.95825)"/>
</clipPath>
</defs>
</svg>
