<svg width="113" height="29" viewBox="0 0 113 29" fill="none" xmlns="http://www.w3.org/2000/svg">
<path d="M0.5 22.0719V0.5H14.7344V4.409H4.82615V9.88159H13.3389V13.7906H4.82615V22.0719H0.5Z" fill="#212227"/>
<path d="M16.5741 22.0719V6.26215H20.7607V22.0719H16.5741ZM16.5741 4.84333V0.5H20.7607V4.84333H16.5741Z" fill="#212227"/>
<path d="M23.8244 22.0719V6.26215H27.7319V9.38935L27.5086 8.69442C27.8621 7.74854 28.4296 7.0536 29.2111 6.60962C30.0112 6.14633 30.9416 5.91469 32.0022 5.91469C33.1558 5.91469 34.1606 6.16563 35.0165 6.66753C35.8911 7.16942 36.5702 7.87401 37.054 8.78128C37.5378 9.66925 37.7797 10.7117 37.7797 11.9085V22.0719H33.5931V12.8351C33.5931 12.2173 33.4722 11.6865 33.2303 11.2425C33.007 10.7985 32.6813 10.4511 32.2534 10.2001C31.844 9.94916 31.3602 9.82368 30.802 9.82368C30.2624 9.82368 29.7786 9.94916 29.3507 10.2001C28.9227 10.4511 28.5878 10.7985 28.3459 11.2425C28.1226 11.6865 28.011 12.2173 28.011 12.8351V22.0719H23.8244Z" fill="#212227"/>
<path d="M45.2495 22.4193C44.1517 22.4193 43.2027 22.236 42.4026 21.8692C41.6025 21.5024 40.9885 20.9812 40.5605 20.3056C40.1325 19.6107 39.9186 18.7902 39.9186 17.8444C39.9186 16.9564 40.1139 16.1746 40.5047 15.499C40.8954 14.804 41.4909 14.2249 42.291 13.7616C43.1097 13.2983 44.1238 12.9702 45.3332 12.7771L49.9943 11.9953V15.1805L46.0868 15.9043C45.4914 16.0202 45.0355 16.2229 44.7192 16.5124C44.4029 16.7827 44.2447 17.1784 44.2447 17.6996C44.2447 18.1822 44.4215 18.5586 44.775 18.8289C45.1286 19.0991 45.5658 19.2342 46.0868 19.2342C46.7753 19.2342 47.38 19.0798 47.901 18.7709C48.422 18.4621 48.8221 18.0471 49.1012 17.5259C49.3989 16.9853 49.5477 16.3966 49.5477 15.7596V11.6479C49.5477 11.0495 49.3152 10.5476 48.85 10.1422C48.4034 9.73682 47.7894 9.53413 47.0079 9.53413C46.2636 9.53413 45.603 9.74647 45.0262 10.1711C44.468 10.5958 44.0586 11.1556 43.7981 11.8506L40.4489 10.2001C40.7466 9.31213 41.2211 8.54964 41.8723 7.91262C42.5236 7.2756 43.3051 6.78335 44.2168 6.43588C45.1286 6.08842 46.124 5.91469 47.2032 5.91469C48.4871 5.91469 49.6222 6.15598 50.6083 6.63857C51.5945 7.12117 52.3574 7.79679 52.897 8.66546C53.4552 9.51482 53.7343 10.509 53.7343 11.6479V22.0719H49.8268V19.5238L50.7758 19.3501C50.3292 20.045 49.8362 20.6241 49.2965 21.0874C48.7569 21.5314 48.1522 21.8595 47.4824 22.0719C46.8125 22.3035 46.0682 22.4193 45.2495 22.4193Z" fill="#212227"/>
<path d="M56.8047 22.0719V6.26215H60.7122V9.38935L60.4889 8.69442C60.8425 7.74854 61.41 7.0536 62.1915 6.60962C62.9916 6.14633 63.9219 5.91469 64.9826 5.91469C66.1362 5.91469 67.141 6.16563 67.9969 6.66753C68.8714 7.16942 69.5506 7.87401 70.0344 8.78128C70.5182 9.66925 70.7601 10.7117 70.7601 11.9085V22.0719H66.5735V12.8351C66.5735 12.2173 66.4525 11.6865 66.2106 11.2425C65.9873 10.7985 65.6617 10.4511 65.2337 10.2001C64.8244 9.94916 64.3406 9.82368 63.7824 9.82368C63.2428 9.82368 62.759 9.94916 62.331 10.2001C61.9031 10.4511 61.5681 10.7985 61.3263 11.2425C61.103 11.6865 60.9913 12.2173 60.9913 12.8351V22.0719H56.8047Z" fill="#212227"/>
<path d="M80.993 22.4193C79.4672 22.4193 78.0903 22.0622 76.8622 21.348C75.6528 20.6144 74.6852 19.6203 73.9595 18.3656C73.2525 17.1108 72.8989 15.7017 72.8989 14.1381C72.8989 12.5745 73.2525 11.1749 73.9595 9.9395C74.6666 8.68476 75.6342 7.70028 76.8622 6.98604C78.0903 6.2718 79.4672 5.91469 80.993 5.91469C82.1281 5.91469 83.1794 6.11737 84.1469 6.52275C85.1145 6.92813 85.9425 7.49759 86.631 8.23113C87.3194 8.94536 87.8125 9.79473 88.1102 10.7792L84.4818 12.4007C84.2214 11.6093 83.7748 10.9819 83.1421 10.5186C82.5281 10.0553 81.8117 9.82368 80.993 9.82368C80.2673 9.82368 79.6161 10.0071 79.0393 10.3738C78.4811 10.7406 78.0345 11.2522 77.6996 11.9085C77.3832 12.5648 77.2251 13.3176 77.2251 14.167C77.2251 15.0164 77.3832 15.7692 77.6996 16.4255C78.0345 17.0819 78.4811 17.5934 79.0393 17.9602C79.6161 18.327 80.2673 18.5103 80.993 18.5103C81.8303 18.5103 82.556 18.2787 83.17 17.8154C83.7841 17.3521 84.2214 16.7248 84.4818 15.9333L88.1102 17.5838C87.8311 18.5103 87.3473 19.3404 86.6589 20.0739C85.9704 20.8075 85.1424 21.3866 84.1748 21.8113C83.2073 22.2166 82.1467 22.4193 80.993 22.4193Z" fill="#212227"/>
<path d="M92.9479 28.5C92.5014 28.5 92.0641 28.4614 91.6361 28.3842C91.2268 28.307 90.8639 28.1815 90.5476 28.0078V24.4462C90.8081 24.5234 91.1151 24.591 91.4687 24.6489C91.8222 24.7068 92.1478 24.7358 92.4455 24.7358C93.2643 24.7358 93.8504 24.5331 94.2039 24.1277C94.5574 23.7223 94.8459 23.259 95.0691 22.7378L96.1018 20.2766L96.046 23.8961L89.3475 6.26215H93.8411L98.2789 18.7999H96.6042L101.042 6.26215H105.536L99.0045 23.5486C98.5952 24.6489 98.0928 25.5658 97.4974 26.2994C96.9019 27.0329 96.2228 27.5831 95.4599 27.9498C94.7156 28.3166 93.8783 28.5 92.9479 28.5Z" fill="#212227"/>
<path d="M108.313 22.0719V17.7285H112.5V22.0719H108.313Z" fill="#212227"/>
</svg>
