<svg width="28" height="28" viewBox="0 0 28 28" fill="none" xmlns="http://www.w3.org/2000/svg">
<path d="M23.6221 1.3999H4.17768C2.6499 1.3999 1.3999 2.6499 1.3999 4.17768V23.6221C1.3999 25.1513 2.6499 26.3999 4.17768 26.3999H13.8999V16.6777H11.1221V13.2402H13.8999V10.393C13.8999 7.3874 15.5832 5.27629 19.1305 5.27629L21.6346 5.27907V8.89712H19.9721C18.5916 8.89712 18.0666 9.93324 18.0666 10.8943V13.2416H21.6332L20.8443 16.6777H18.0666V26.3999H23.6221C25.1499 26.3999 26.3999 25.1513 26.3999 23.6221V4.17768C26.3999 2.6499 25.1499 1.3999 23.6221 1.3999Z" fill="#5D74F1"/>
</svg>
