<svg width="200" height="68" viewBox="0 0 200 68" fill="none" xmlns="http://www.w3.org/2000/svg">
<path d="M48.4811 16.8353C48.4453 16.5846 48.2303 16.4414 48.0512 16.4414C47.872 16.4414 44.3249 16.3697 44.3249 16.3697C44.3249 16.3697 41.351 13.5047 41.0644 13.1824C40.7777 12.8959 40.2045 12.9675 39.9895 13.0391C39.9895 13.0391 39.4162 13.2182 38.4846 13.5047C38.3413 13.0033 38.0905 12.3945 37.7681 11.7498C36.729 9.74429 35.1525 8.6699 33.2893 8.6699C33.146 8.6699 33.0385 8.6699 32.8952 8.70571C32.8235 8.63409 32.7877 8.56246 32.7161 8.52665C31.892 7.66713 30.8529 7.23737 29.5989 7.27319C27.1983 7.34481 24.7977 9.09966 22.827 12.1796C21.4655 14.3642 20.4265 17.086 20.104 19.199C17.3451 20.0585 15.4103 20.6673 15.3386 20.6673C13.9413 21.0971 13.9054 21.1329 13.7263 22.458C13.6546 23.4607 10 51.7173 10 51.7173L40.6703 57.0177L53.9631 53.7229C53.9273 53.7229 48.517 17.086 48.4811 16.8353ZM36.944 14.0061C36.2274 14.2209 35.4391 14.4716 34.5792 14.7581C34.5792 13.5405 34.4001 11.8215 33.8626 10.3889C35.6899 10.6754 36.5857 12.7526 36.944 14.0061ZM32.9669 15.2237C31.3545 15.7251 29.5989 16.2623 27.8432 16.7995C28.3448 14.9014 29.2764 13.0391 30.423 11.7856C30.8529 11.3201 31.462 10.8187 32.1428 10.5322C32.8594 11.9289 33.0027 13.8986 32.9669 15.2237ZM29.6705 8.88478C30.2438 8.88478 30.7096 8.99222 31.1037 9.27872C30.4588 9.60104 29.8138 10.1024 29.2406 10.7471C27.6999 12.3945 26.5175 14.9372 26.0517 17.4083C24.5827 17.8739 23.1495 18.3036 21.8596 18.6976C22.7196 14.7939 25.9801 8.99222 29.6705 8.88478Z" fill="#5D74F1"/>
<path d="M48.0513 16.4416C47.8722 16.4416 44.325 16.37 44.325 16.37C44.325 16.37 41.3512 13.5049 41.0645 13.1826C40.957 13.0752 40.8137 13.0035 40.6704 13.0035V57.0179L53.9632 53.7231C53.9632 53.7231 48.553 17.0862 48.5171 16.8355C48.4455 16.5849 48.2305 16.4416 48.0513 16.4416Z" fill="#DDE1F5"/>
<path d="M33.2898 23.2814L31.7492 29.0473C31.7492 29.0473 30.0293 28.2594 27.987 28.4027C24.9773 28.5818 24.9773 30.4798 24.9773 30.9454C25.1565 33.524 31.9283 34.097 32.3224 40.1494C32.6091 44.9125 29.8143 48.1715 25.7298 48.4222C20.8569 48.6729 18.1697 45.8079 18.1697 45.8079L19.2087 41.4029C19.2087 41.4029 21.9318 43.4442 24.0816 43.301C25.4789 43.2293 26.0164 42.0475 25.9447 41.2596C25.7298 37.8932 20.212 38.1081 19.8537 32.557C19.567 27.9013 22.6126 23.2098 29.3486 22.78C31.9641 22.601 33.2898 23.2814 33.2898 23.2814Z" fill="#DDE1F5"/>
<path d="M71.9499 35.5658C70.4092 34.7421 69.621 34.0258 69.621 33.0589C69.621 31.8412 70.7317 31.0533 72.4515 31.0533C74.458 31.0533 76.2495 31.877 76.2495 31.877L77.6469 27.5795C77.6469 27.5795 76.357 26.5767 72.559 26.5767C67.2562 26.5767 63.5658 29.6208 63.5658 33.8826C63.5658 36.3179 65.2856 38.1443 67.5787 39.4694C69.4418 40.508 70.0868 41.2601 70.0868 42.3703C70.0868 43.5163 69.1552 44.4475 67.4354 44.4475C64.8915 44.4475 62.455 43.1224 62.455 43.1224L60.9502 47.42C60.9502 47.42 63.1716 48.9241 66.9338 48.9241C72.3799 48.9241 76.3212 46.2381 76.3212 41.4033C76.2853 38.789 74.3147 36.9267 71.9499 35.5658Z" fill="#5D74F1"/>
<path d="M93.6629 26.5054C90.9756 26.5054 88.8617 27.7947 87.2493 29.7286L87.1777 29.6928L89.5066 17.5163H83.4514L77.5395 48.5305H83.5947L85.6012 37.9298C86.3894 33.9187 88.4675 31.4476 90.4024 31.4476C91.7639 31.4476 92.3013 32.3787 92.3013 33.7038C92.3013 34.5275 92.2297 35.5661 92.0505 36.3898L89.7574 48.5305H95.8126L98.1774 35.9959C98.4282 34.6708 98.6074 33.095 98.6074 32.0206C98.6432 28.5825 96.8517 26.5054 93.6629 26.5054Z" fill="#5D74F1"/>
<path d="M112.365 26.5049C105.056 26.5049 100.219 33.0945 100.219 40.4362C100.219 45.1277 103.121 48.9239 108.568 48.9239C115.733 48.9239 120.57 42.5133 120.57 34.9926C120.606 30.6592 118.062 26.5049 112.365 26.5049ZM109.392 44.304C107.313 44.304 106.454 42.5491 106.454 40.3287C106.454 36.8549 108.245 31.1964 111.541 31.1964C113.691 31.1964 114.408 33.0587 114.408 34.8493C114.408 38.5739 112.58 44.304 109.392 44.304Z" fill="#5D74F1"/>
<path d="M136.121 26.5049C132.037 26.5049 129.708 30.122 129.708 30.122H129.636L129.995 26.863H124.62C124.369 29.0476 123.868 32.414 123.402 34.9209L119.174 57.1251H125.229L126.913 48.136H127.056C127.056 48.136 128.311 48.9239 130.604 48.9239C137.734 48.9239 142.392 41.618 142.392 34.2405C142.392 30.1578 140.564 26.5049 136.121 26.5049ZM130.317 44.3756C128.74 44.3756 127.809 43.4803 127.809 43.4803L128.812 37.8218C129.529 34.0256 131.499 31.5187 133.613 31.5187C135.476 31.5187 136.05 33.2377 136.05 34.8493C136.05 38.7888 133.721 44.3756 130.317 44.3756Z" fill="#5D74F1"/>
<path d="M151.061 17.8027C149.127 17.8027 147.586 19.3426 147.586 21.3123C147.586 23.103 148.732 24.3565 150.452 24.3565H150.524C152.423 24.3565 154.035 23.0672 154.071 20.8468C154.071 19.0919 152.889 17.8027 151.061 17.8027Z" fill="#5D74F1"/>
<path d="M142.57 48.4943H148.625L152.746 27.0064H146.655L142.57 48.4943Z" fill="#5D74F1"/>
<path d="M168.188 26.971H163.96L164.175 25.9682C164.533 23.891 165.752 22.0646 167.794 22.0646C168.869 22.0646 169.729 22.3869 169.729 22.3869L170.911 17.6237C170.911 17.6237 169.872 17.0865 167.615 17.0865C165.465 17.0865 163.315 17.6954 161.667 19.0921C159.589 20.8469 158.621 23.3897 158.156 25.9682L157.977 26.971H155.146L154.25 31.5551H157.081L153.856 48.5305H159.911L163.136 31.5551H167.328L168.188 26.971Z" fill="#5D74F1"/>
<path d="M182.806 27.0064C182.806 27.0064 179.008 36.5685 177.324 41.7973H177.253C177.145 40.1141 175.748 27.0064 175.748 27.0064H169.37L173.025 46.7395C173.096 47.1692 173.061 47.4557 172.881 47.7423C172.165 49.1032 170.982 50.4282 169.585 51.3952C168.438 52.2189 167.149 52.7561 166.145 53.1142L167.829 58.2713C169.048 58.0206 171.627 56.9821 173.777 54.9765C176.536 52.398 179.116 48.3869 181.731 42.9433L189.148 27.0064H182.806Z" fill="#5D74F1"/>
</svg>
