<svg width="32" height="28" viewBox="0 0 32 28" fill="none" xmlns="http://www.w3.org/2000/svg">
<path d="M13.4 2.95165L5.37336 7.53665C2.80003 9.00665 2.80003 12.2966 5.37336 13.7666L13.4 18.3516C14.84 19.18 17.2134 19.18 18.6534 18.3516L26.64 13.7666C29.2 12.2966 29.2 9.01831 26.64 7.54831L18.6534 2.96331C17.2134 2.12331 14.84 2.12331 13.4 2.95165Z" stroke="#5D74F1" stroke-width="1.8" stroke-linecap="round" stroke-linejoin="round"/>
<path d="M7.50662 15.26L7.49329 20.7317C7.49329 22.2133 8.79995 23.8 10.4 24.2667L14.6533 25.5033C15.3866 25.7133 16.6 25.7133 17.3466 25.5033L21.6 24.2667C23.2 23.8 24.5066 22.2133 24.5066 20.7317V15.3183" stroke="#5D74F1" stroke-width="1.8" stroke-linecap="round" stroke-linejoin="round"/>
<path d="M28.5333 17.5V10.5" stroke="#5D74F1" stroke-width="1.5" stroke-linecap="round" stroke-linejoin="round"/>
</svg>
